<svg xmlns="http://www.w3.org/2000/svg" width="74.564" height="84.2" viewBox="0 0 74.564 84.2">
  <path id="cloud_develop" data-name="cloud develop" d="M17.03,15.336q-.507.457-1,.929a1.316,1.316,0,0,0,1.827,1.894q.458-.441.929-.867a1.316,1.316,0,0,0-1.761-1.956Zm9.038-3.069q.565-.289,1.14-.562a1.316,1.316,0,0,0-1.124-2.379q-.616.291-1.219.6a1.315,1.315,0,1,0,1.2,2.338Zm-12.813,7c-.052.062-.1.127-.151.189a6.1,6.1,0,0,0-6.051,10.47c-.09.237-.183.472-.268.71a1.316,1.316,0,0,0,2.478.884c.055-.154.116-.3.173-.457a6.061,6.061,0,0,0,1.34.161,6.13,6.13,0,0,0,5.158-2.846,1.3,1.3,0,0,0,.564,1.551l1.139.658A1.316,1.316,0,0,0,18.951,28.3l-1.139-.658a1.3,1.3,0,0,0-1.644.308,6.093,6.093,0,0,0-.918-6.975l.027-.033a1.316,1.316,0,1,0-2.022-1.683Zm.541,7.584a3.573,3.573,0,0,1-4.758,1.275,3.481,3.481,0,0,1-1.275-4.756A3.482,3.482,0,0,1,13.8,26.847Zm6.421-14.075a1.316,1.316,0,0,0,1.535,2.138q.514-.37,1.043-.721A1.316,1.316,0,1,0,21.339,12Q20.77,12.376,20.216,12.773Zm10.957-5.4q-.653.2-1.3.416a1.316,1.316,0,0,0,.851,2.49q.6-.2,1.208-.388a1.315,1.315,0,0,0-.762-2.518ZM78.144,34.069a1.316,1.316,0,0,0-2.553.637q.153.613.284,1.235A1.316,1.316,0,1,0,78.45,35.4C78.356,34.953,78.254,34.509,78.144,34.069Zm.97,12.18q.057-.678.089-1.362a1.316,1.316,0,1,0-2.629-.123c-.02.423-.047.845-.083,1.264a1.316,1.316,0,0,0,2.622.221Zm-3.147,3.543c-.082.415-.17.829-.267,1.237a1.315,1.315,0,1,0,2.561.6q.156-.663.288-1.335a1.316,1.316,0,1,0-2.582-.506ZM77.632,38.26A1.316,1.316,0,0,0,76.45,39.7q.061.626.1,1.263a1.316,1.316,0,1,0,2.626-.162q-.041-.682-.108-1.358A1.321,1.321,0,0,0,77.632,38.26ZM26.083,73.934a1.315,1.315,0,1,0-1.2,2.338q.605.312,1.222.6a1.316,1.316,0,0,0,1.118-2.382Q26.646,74.223,26.083,73.934Zm-4.728.27a1.316,1.316,0,0,0,1.449-2.2c-.352-.231-.7-.472-1.04-.717a1.316,1.316,0,0,0-1.535,2.138Q20.784,73.827,21.355,74.2Zm9.388,1.71a1.316,1.316,0,1,0-.851,2.49q.645.22,1.3.416a1.316,1.316,0,1,0,.754-2.521Q31.34,76.118,30.743,75.914Zm-12.87-7.871a1.316,1.316,0,0,0-1.827,1.894c.326.315.66.626,1,.929A1.316,1.316,0,1,0,18.8,68.908Q18.33,68.484,17.873,68.043ZM7.922,36.4q.122-.622.267-1.24a1.316,1.316,0,1,0-2.562-.6q-.155.663-.288,1.335a1.316,1.316,0,1,0,2.582.506ZM6.127,47.937c.042,0,.085,0,.129-.006a1.316,1.316,0,0,0,1.181-1.438q-.061-.626-.1-1.26a1.315,1.315,0,1,0-2.626.157q.04.684.107,1.359A1.315,1.315,0,0,0,6.127,47.937Zm-.382,4.182A1.316,1.316,0,0,0,8.3,51.482q-.153-.613-.284-1.235a1.316,1.316,0,0,0-2.575.542C5.533,51.235,5.635,51.68,5.745,52.119ZM4.774,39.941q-.057.678-.089,1.362a1.316,1.316,0,0,0,1.253,1.376H6a1.316,1.316,0,0,0,1.313-1.254c.02-.423.047-.845.083-1.264a1.315,1.315,0,0,0-1.2-1.421A1.3,1.3,0,0,0,4.774,39.941Zm63.694,27.5a1.315,1.315,0,0,0,1.855-.148c.155-.181.3-.368.454-.552a6.1,6.1,0,0,0,6.057-10.469c.091-.239.185-.477.271-.718a1.316,1.316,0,0,0-2.478-.884c-.056.156-.118.31-.176.465a6.065,6.065,0,0,0-1.338-.161,6.13,6.13,0,0,0-4.5,1.992l-.135-.078a1.316,1.316,0,1,0-1.316,2.279l.128.074a6.111,6.111,0,0,0,1.343,5.967c-.1.126-.2.254-.311.378A1.315,1.315,0,0,0,68.469,67.444Zm1.621-8.086s.006-.007.008-.011,0,0,0,0a3.478,3.478,0,0,1,4.751-1.266,3.483,3.483,0,0,1,1.275,4.758,3.574,3.574,0,0,1-4.756,1.275A3.488,3.488,0,0,1,70.09,59.358Zm-7.945,15.1c.383-.248.761-.5,1.134-.763a1.315,1.315,0,1,0-1.511-2.153q-.517.362-1.05.7a1.316,1.316,0,0,0,1.426,2.212ZM52.73,76.053q-.6.2-1.212.37a1.316,1.316,0,0,0,.723,2.531q.657-.189,1.306-.4a1.315,1.315,0,1,0-.817-2.5Zm4.684-1.922q-.565.283-1.142.543a1.316,1.316,0,0,0,1.086,2.4q.623-.283,1.235-.59a1.315,1.315,0,1,0-1.179-2.351ZM66.5,71.175q.514-.449,1.009-.916a1.316,1.316,0,0,0-1.8-1.917q-.462.436-.939.854A1.315,1.315,0,1,0,66.5,71.175ZM62.144,11.732a1.316,1.316,0,0,0-1.426,2.212q.532.341,1.05.7A1.315,1.315,0,1,0,63.279,12.5C62.905,12.233,62.527,11.98,62.144,11.732Zm-9.9-4.494a1.316,1.316,0,0,0-.723,2.531q.611.173,1.212.37a1.3,1.3,0,0,0,.409.066,1.315,1.315,0,0,0,.409-2.566Q52.9,7.427,52.242,7.238Zm6.939,4.236a1.315,1.315,0,0,0-.587-1.765q-.611-.306-1.235-.59a1.316,1.316,0,0,0-1.086,2.4q.577.26,1.142.543a1.315,1.315,0,0,0,1.766-.586ZM66.6,18.2a1.316,1.316,0,0,0,.9-2.274q-.5-.466-1.009-.916a1.315,1.315,0,1,0-1.733,1.979q.477.418.939.854A1.312,1.312,0,0,0,66.6,18.2ZM47.755,8.919l.058.009a1.443,1.443,0,0,0,.222.018,1.316,1.316,0,0,0,.219-2.613c-.092-.016-.186-.027-.279-.042a6.082,6.082,0,0,0-12.061,0c-.254.041-.509.08-.761.126a1.315,1.315,0,1,0,.472,2.588c.169-.031.341-.055.511-.084A6.113,6.113,0,0,0,40.72,13.1a1.3,1.3,0,0,0-.091.449v1.316a1.316,1.316,0,1,0,2.631,0V13.553a1.3,1.3,0,0,0-.091-.449A6.113,6.113,0,0,0,47.755,8.919ZM41.944,10.6a3.482,3.482,0,1,1,3.482-3.483A3.487,3.487,0,0,1,41.944,10.6ZM5.484,64.15a6.109,6.109,0,0,0,7.626,2.595c.053.064.1.131.156.195a1.316,1.316,0,0,0,2.022-1.683l-.033-.042A6.111,6.111,0,0,0,16.6,59.229a1.244,1.244,0,0,0,.117-.048l1.14-.656a1.315,1.315,0,1,0-1.313-2.279L15.4,56.9a1.248,1.248,0,0,0-.1.091,5.99,5.99,0,0,0-5.863-1.853l-.011-.029a1.316,1.316,0,1,0-2.467.917c.031.084.066.166.1.249A6.06,6.06,0,0,0,5.484,64.15Zm1.931-3.958a3.486,3.486,0,0,1,3.359-2.582,3.483,3.483,0,0,1,1.746,6.5,3.574,3.574,0,0,1-4.757-1.274A3.457,3.457,0,0,1,7.415,60.192ZM78.4,22.05a6.11,6.11,0,0,0-7.621-2.6c-.153-.187-.3-.376-.46-.56a1.316,1.316,0,0,0-2,1.706c.107.126.209.256.315.383a6.108,6.108,0,0,0-1.348,5.964l-.126.073A1.316,1.316,0,0,0,68.476,29.3l.131-.076a6.13,6.13,0,0,0,4.507,2,6.056,6.056,0,0,0,1.345-.162l.008.021a1.316,1.316,0,1,0,2.467-.917c-.03-.081-.064-.161-.1-.242A6.058,6.058,0,0,0,78.4,22.05ZM74.85,28.122a3.589,3.589,0,0,1-4.746-1.26c0-.006,0-.013-.006-.019s-.009-.009-.013-.015a3.481,3.481,0,1,1,4.765,1.293Zm-32.905-5.36a1.315,1.315,0,0,0-1.316,1.316v1.316a1.316,1.316,0,0,0,2.631,0V24.077A1.315,1.315,0,0,0,41.945,22.762Zm1.316-3.947a1.316,1.316,0,0,0-2.631,0v1.316a1.316,1.316,0,0,0,2.631,0ZM23.509,30.94,22.37,30.28a1.315,1.315,0,1,0-1.318,2.277l1.139.659a1.315,1.315,0,1,0,1.318-2.277ZM19.476,56.071a1.316,1.316,0,0,0,1.8.482l1.14-.658A1.315,1.315,0,1,0,21.1,53.616l-1.14.658A1.316,1.316,0,0,0,19.476,56.071ZM40.629,73.122a6.109,6.109,0,0,0-4.492,4.148c-.166-.028-.333-.052-.5-.081a1.315,1.315,0,1,0-.472,2.588c.247.046.5.082.745.122a6.082,6.082,0,0,0,12.063,0c.092-.015.186-.026.278-.042a1.316,1.316,0,0,0-.441-2.6l-.06.009a6.109,6.109,0,0,0-4.492-4.15v-.155a1.316,1.316,0,1,0-2.631,0v.155ZM41.944,75.6a3.483,3.483,0,1,1-3.482,3.483A3.487,3.487,0,0,1,41.944,75.6Zm-1.315-6.582a1.316,1.316,0,0,0,2.631,0V67.705a1.316,1.316,0,1,0-2.631,0Zm1.316-9.209A1.315,1.315,0,0,0,43.26,58.5V57.18a1.316,1.316,0,0,0-2.631,0V58.5A1.315,1.315,0,0,0,41.945,59.811Zm-1.316,3.947a1.316,1.316,0,0,0,2.631,0V62.443a1.316,1.316,0,0,0-2.631,0Zm24.91-7.041a1.315,1.315,0,0,0-.481-1.8l-1.139-.658A1.316,1.316,0,0,0,62.6,56.542l1.139.658A1.316,1.316,0,0,0,65.539,56.718Zm-4.557-2.63a1.317,1.317,0,0,0-.482-1.8l-.3-.175a8.05,8.05,0,0,0-5.082-14.3h-.074a6.83,6.83,0,0,0-.1-.7l1.008-.582a1.316,1.316,0,1,0-1.316-2.279L54,34.62a7.5,7.5,0,0,0-.634-.882A7.674,7.674,0,0,0,44.64,31.6a10.423,10.423,0,0,0-1.38-1.518V29.34a1.315,1.315,0,0,0-1.316-1.316,1.3,1.3,0,0,0-.959.427,10.329,10.329,0,0,0-4.852-1.2,10.59,10.59,0,0,0-9.343,5.615,1.3,1.3,0,0,0-1.664.527,1.315,1.315,0,0,0,.481,1.8l.241.139a10.4,10.4,0,0,0-.279,3.149,8.078,8.078,0,0,0-4.855,7.386,7.975,7.975,0,0,0,3.255,6.44,1.293,1.293,0,0,0,.063,1.135,1.316,1.316,0,0,0,1.8.483l.662-.381a8.04,8.04,0,0,0,2.28.368H40.844a1.268,1.268,0,0,0,2.2,0H55.115a8.061,8.061,0,0,0,2.5-.428,1.285,1.285,0,0,0,.432.428l1.14.658A1.318,1.318,0,0,0,60.981,54.088ZM57.108,50.9a5.468,5.468,0,0,1-1.993.378H28.774a5.416,5.416,0,0,1-1.417-10.646,1.316,1.316,0,0,0,.945-1.521,7.732,7.732,0,0,1,.344-3.964,7.847,7.847,0,0,1,7.488-5.265,7.935,7.935,0,0,1,6.9,4.089,1.316,1.316,0,0,0,1.884.464,4.938,4.938,0,0,1,6.435.994,4.383,4.383,0,0,1,1,3.622,1.316,1.316,0,0,0,1.561,1.515A5.423,5.423,0,0,1,57.108,50.9Zm2.254-16.34L60.5,33.9a1.316,1.316,0,0,0-1.316-2.279l-1.14.658a1.316,1.316,0,0,0,1.316,2.279Zm4.381-5.57-1.14.658a1.316,1.316,0,1,0,1.316,2.279l1.14-.658a1.316,1.316,0,0,0-1.316-2.279Z" transform="translate(-4.662 -1)"/>
</svg>
