<svg xmlns="http://www.w3.org/2000/svg" width="64.273" height="78" viewBox="0 0 64.273 78">
  <path id="eCommerce" d="M37.012.472a1.279,1.279,0,0,0-1,1.237V4.8a16.581,16.581,0,0,0-3.324,1.39L30.519,3.95a1.286,1.286,0,0,0-1.779,0L23.793,8.9a1.286,1.286,0,0,0,0,1.779l2.241,2.164a16.523,16.523,0,0,0-1.39,3.322H21.552A1.286,1.286,0,0,0,20.315,17.4v4.1q0,.037,0,.074H14.982l-1.546-6.493c-.205-.767-.542-.928-1.625-.928H3v2.474h8.272l8.578,36.1a1.237,1.237,0,0,0,.156.309v.077a1.236,1.236,0,0,0,.077.156l2.164,9.35a8.107,8.107,0,1,0,8.116,2.088H45.978a8.132,8.132,0,1,0,7.035-2.318c-8.343,0-18.948-.156-28.293-.156l-2.006-8.5h34.4a1.276,1.276,0,0,0,1.237-.928l8.89-29.683a1.293,1.293,0,0,0-1.16-1.546H61.132q0-.038,0-.077V17.4a1.286,1.286,0,0,0-1.237-1.237H56.8A16.5,16.5,0,0,0,55.41,12.84l2.244-2.164a1.286,1.286,0,0,0,0-1.779L52.707,3.95a1.286,1.286,0,0,0-1.779,0L48.764,6.191A16.514,16.514,0,0,0,45.439,4.8V1.709A1.286,1.286,0,0,0,44.2.472H37.247a1.237,1.237,0,0,0-.233,0Zm1.469,2.474h4.482V5.57A1.279,1.279,0,0,0,43.97,6.807a14.047,14.047,0,0,1,4.4,1.855,1.279,1.279,0,0,0,1.548-.153l1.932-1.855,3.092,3.094L53.09,11.68a1.271,1.271,0,0,0-.156,1.469,14.416,14.416,0,0,1,1.855,4.482,1.281,1.281,0,0,0,1.237,1.007h2.629V21.5q0,.038,0,.077H22.789q0-.038,0-.077V18.638h2.629a1.279,1.279,0,0,0,1.237-1.007,14.06,14.06,0,0,1,1.855-4.405,1.276,1.276,0,0,0-.156-1.546L26.5,9.748l3.092-3.092,1.932,1.855a1.274,1.274,0,0,0,1.469.153A14.5,14.5,0,0,1,37.477,6.81a1.279,1.279,0,0,0,1-1.237Zm2.241,8.039a9.914,9.914,0,0,0-9.894,9.894c0,.213.064.408.077.618h2.474c-.017-.208-.077-.406-.077-.618a7.421,7.421,0,0,1,14.841,0c0,.213-.059.411-.077.618H50.54c.012-.21.077-.406.077-.618A9.914,9.914,0,0,0,40.722,10.985ZM15.6,24.048H64.454L62.984,29h-30.3v2.474h29.53l-1.546,4.947H37.63v2.474H59.969l-1.546,4.947H42.577V46.31H57.728l-1.546,4.947H22.094Zm8.967,40.661a5.626,5.626,0,1,1-4,1.648,5.63,5.63,0,0,1,4-1.648Zm27.209,0a5.626,5.626,0,1,1-4,1.646,5.63,5.63,0,0,1,4-1.646ZM24.567,66.564a3.71,3.71,0,1,0,3.71,3.71A3.728,3.728,0,0,0,24.567,66.564Zm27.209,0a3.71,3.71,0,1,0,3.71,3.71A3.728,3.728,0,0,0,51.777,66.564ZM24.567,69.038a1.244,1.244,0,1,1-1.237,1.237A1.217,1.217,0,0,1,24.567,69.038Zm27.209,0a1.244,1.244,0,1,1-1.237,1.237A1.217,1.217,0,0,1,51.777,69.038Z" transform="translate(-3 -0.467)" fill="#212529"/>
</svg>
