<svg xmlns="http://www.w3.org/2000/svg" width="59.489" height="73.218" viewBox="0 0 59.489 73.218">
  <path id="ms-dynamics" d="M62.261,60.176c0-.458-.229-.686-.229-1.144a.841.841,0,0,0-.229-.686c-.229-.458-.229-.915-.458-1.373v-.229a12.476,12.476,0,0,0-7.551-6.864L41.9,46.219V40.727a17.6,17.6,0,0,0,4.118-4.118A8.027,8.027,0,0,0,53.566,28.6V24.025a3.908,3.908,0,0,0-3.661-3.432H48.99l1.83-8.008A10.1,10.1,0,0,0,48.761,3.89,10.077,10.077,0,0,0,40.753,0H29.313a5.963,5.963,0,0,0-5.034,2.974,2.6,2.6,0,0,0-1.83-.686h-.458a8.513,8.513,0,0,0-6.407,2.974,7.31,7.31,0,0,0-1.373,6.864L16.5,20.592h-.915a3.519,3.519,0,0,0-3.432,3.432v2.288a3.519,3.519,0,0,0,3.432,3.432h1.373A16.208,16.208,0,0,0,23.592,40.5v5.72l-11.9,3.89a12.476,12.476,0,0,0-7.551,6.864V57.2a3.252,3.252,0,0,0-.458,1.373c0,.229,0,.458-.229.458,0,.458-.229.686-.229,1.144A5.038,5.038,0,0,0,3,62.006V72.074a1.081,1.081,0,0,0,1.144,1.144h57.2a1.081,1.081,0,0,0,1.144-1.144V62.006a5.038,5.038,0,0,0-.229-1.83ZM47.388,33.863a13.889,13.889,0,0,0,1.144-4.118H50.82A5.247,5.247,0,0,1,47.388,33.863Zm3.661-9.839v3.432H48.761V22.881h1.144a1.081,1.081,0,0,1,1.144,1.144ZM17.644,6.864A5.973,5.973,0,0,1,22.22,4.576h.458a1.047,1.047,0,0,1,.915,1.144,1.144,1.144,0,0,0,2.288,0,3.519,3.519,0,0,1,3.432-3.432h11.44a7.7,7.7,0,0,1,6.178,2.974,7.759,7.759,0,0,1,1.6,6.635L46.7,20.592h-.229a1.081,1.081,0,0,1-1.144-1.144V14.872A3.519,3.519,0,0,0,41.9,11.44h-18.3a3.519,3.519,0,0,0-3.432,3.432v4.576a1.081,1.081,0,0,1-1.144,1.144h-.229L16.5,11.669A5.347,5.347,0,0,1,17.644,6.864ZM15.584,27.457a1.081,1.081,0,0,1-1.144-1.144V24.025a1.081,1.081,0,0,1,1.144-1.144h1.144v4.576Zm3.432.229v-4.8a3.519,3.519,0,0,0,3.432-3.432V14.872a1.081,1.081,0,0,1,1.144-1.144H41.9a1.081,1.081,0,0,1,1.144,1.144v4.576a3.519,3.519,0,0,0,3.432,3.432v4.576a13.978,13.978,0,0,1-1.83,6.864H39.38a3.441,3.441,0,0,0-3.2-2.288H33.889a3.432,3.432,0,1,0,0,6.864h2.288a3.231,3.231,0,0,0,3.2-2.288h3.432a13.98,13.98,0,0,1-10.3,4.576,13.675,13.675,0,0,1-13.5-13.5Zm18.3,7.779a1.081,1.081,0,0,1-1.144,1.144H33.889a1.144,1.144,0,0,1,0-2.288h2.288A1.081,1.081,0,0,1,37.321,35.465Zm-4.576,8.008a16.816,16.816,0,0,0,6.864-1.6v4.8c0,.458-.229.686-.229,1.144a1.735,1.735,0,0,1-.458.915.224.224,0,0,1-.229.229c-.229.229-.229.458-.458.686l-.458.458-.458.458c-.229.229-.458.229-.686.458-.229,0-.229.229-.458.229-.229.229-.458.229-.686.458-.229,0-.229.229-.458.229s-.686.229-.915.229H33.66c0,.458-.458.458-.915.458A1.715,1.715,0,0,1,31.6,52.4h-.458c-.229,0-.686-.229-.915-.229s-.229-.229-.458-.229c-.229-.229-.458-.229-.686-.458-.229,0-.229-.229-.458-.229-.229-.229-.458-.229-.686-.458l-.458-.458-.458-.458c-.229-.229-.229-.458-.458-.686a.224.224,0,0,0-.229-.229c-.229-.229-.229-.686-.458-.915a2.063,2.063,0,0,1-.229-1.144V42.1a24.385,24.385,0,0,0,7.093,1.373ZM12.381,52.168l11.669-3.89v.229c.229.229.229.686.458.915,0,.229.229.458.458.686s.229.458.458.686a4.991,4.991,0,0,0,.915,1.144,4.017,4.017,0,0,0,1.144.915l.229.229c.458.229.686.458,1.144.686.229,0,.229.229.458.229.458.229.686.229,1.144.458h.458c.458,0,1.144.229,1.6.229a3.894,3.894,0,0,0,1.6-.229c.229,0,.229,0,.458-.229.458,0,.686-.229,1.144-.458.229,0,.229-.229.458-.229.458-.229.686-.458,1.144-.686l.229-.229a4.991,4.991,0,0,0,1.144-.915,4.017,4.017,0,0,0,.915-1.144c.229-.229.229-.458.458-.686s.229-.458.458-.686.229-.686.458-.915v-.229l11.669,3.89a11.053,11.053,0,0,1,4.576,3.2A14.714,14.714,0,0,0,46.015,69.557V70.93h-27V69.786A14.966,14.966,0,0,0,7.8,55.371a11.053,11.053,0,0,1,4.576-3.2ZM5.288,70.93v-10.3a.841.841,0,0,1,.229-.686c0-.229,0-.458.229-.458l.686-2.059a12.526,12.526,0,0,1,10.3,12.355V70.93Zm54.913,0H48.761V69.786a12.526,12.526,0,0,1,10.3-12.355,7.272,7.272,0,0,1,.686,2.059c0,.229,0,.458.229.458a.841.841,0,0,0,.229.686Z" transform="translate(-3)" fill="#212529"/>
</svg>
