<svg xmlns="http://www.w3.org/2000/svg" width="84.4" height="84.4" viewBox="0 0 84.4 84.4">
  <g id="quality-assurance" transform="translate(-7017 -9330)">
    <g id="c6fa7b4cf01a5d2b4bd2ed5d8e304c93" transform="translate(7017 9330)">
      <path id="Path_58243" data-name="Path 58243" d="M28.521,28.522a5.19,5.19,0,0,1,1.148-.841l-6.4-6.406a1.407,1.407,0,0,0-1.989,1.992l6.389,6.389A5.713,5.713,0,0,1,28.521,28.522Z" transform="translate(35.021 35.02)"/>
      <path id="Path_58244" data-name="Path 58244" d="M73.218,80.133a6.993,6.993,0,0,1-4.974-2.059L58.4,68.227a7.036,7.036,0,0,1,0-9.948,7.423,7.423,0,0,1,9.945,0l9.847,9.847a7.032,7.032,0,0,1-4.971,12.007ZM63.371,59.089a4.182,4.182,0,0,0-2.985,7.149l9.847,9.847a4.324,4.324,0,0,0,5.967,0,4.221,4.221,0,0,0,0-5.97l-9.847-9.847A4.232,4.232,0,0,0,63.371,59.089ZM29.645,70.283A40.794,40.794,0,0,1,4.375,61.548a1.406,1.406,0,0,1,1.741-2.208A38.068,38.068,0,0,0,43.61,64.811a1.406,1.406,0,0,1,1.038,2.614A40.724,40.724,0,0,1,29.645,70.283ZM66.283,45.3a1.437,1.437,0,0,1-.515-.1,1.409,1.409,0,0,1-.8-1.823A38.114,38.114,0,0,0,59.6,6.179a1.407,1.407,0,0,1,2.22-1.73,40.95,40.95,0,0,1,5.776,39.958A1.411,1.411,0,0,1,66.283,45.3Z" transform="translate(4.149 4.267)"/>
      <path id="Path_58245" data-name="Path 58245" d="M34.76,68.52A33.76,33.76,0,1,1,68.52,34.76,33.8,33.8,0,0,1,34.76,68.52Zm0-64.707A30.947,30.947,0,1,0,65.707,34.76,30.983,30.983,0,0,0,34.76,3.813Z" transform="translate(-1 -1)"/>
      <ellipse id="Ellipse_4247" data-name="Ellipse 4247" cx="1" cy="1.5" rx="1" ry="1.5" transform="translate(3.4 59)"/>
      <ellipse id="Ellipse_4248" data-name="Ellipse 4248" cx="2" cy="1.5" rx="2" ry="1.5" transform="translate(58.4 3)"/>
    </g>
    <g id="_90bff631b175865e0d8450c2d8c71961" data-name="90bff631b175865e0d8450c2d8c71961" transform="translate(7031.619 9343.821)">
      <path id="Path_58247" data-name="Path 58247" d="M38.237,18.2c-.068.135-.135.2-.271.2l-2.773.541A2.083,2.083,0,0,0,33.5,20.7a17.246,17.246,0,0,0,0,5.275,2.083,2.083,0,0,0,1.691,1.758l2.773.541c.135,0,.2.135.271.2a12.587,12.587,0,0,0,.676,1.691.307.307,0,0,1,0,.338l-1.556,2.3a2.028,2.028,0,0,0,.068,2.435,19.378,19.378,0,0,0,3.72,3.72,2.031,2.031,0,0,0,2.435.068l2.3-1.623a.307.307,0,0,1,.338,0,17.612,17.612,0,0,0,1.691.676c.135.068.2.135.2.271l.541,2.773a2.083,2.083,0,0,0,1.758,1.691,17.246,17.246,0,0,0,5.275,0,2.083,2.083,0,0,0,1.758-1.691l.541-2.773a.3.3,0,0,1,.2-.271,17.612,17.612,0,0,0,1.691-.676.3.3,0,0,1,.338,0l2.3,1.623a2.028,2.028,0,0,0,2.435-.068,19.378,19.378,0,0,0,3.72-3.72,2.031,2.031,0,0,0,.068-2.435l-1.556-2.3a.3.3,0,0,1,0-.338,17.615,17.615,0,0,0,.676-1.691c.068-.135.135-.2.271-.2l2.773-.541a2.083,2.083,0,0,0,1.691-1.758,17.246,17.246,0,0,0,0-5.275A2.083,2.083,0,0,0,70.9,18.944L68.266,18.4c-.135,0-.2-.135-.271-.2a17.617,17.617,0,0,0-.676-1.691.3.3,0,0,1,0-.338L68.942,13.8a2.028,2.028,0,0,0-.068-2.435,19.379,19.379,0,0,0-3.72-3.72,2.031,2.031,0,0,0-2.435-.068l-2.3,1.556a.3.3,0,0,1-.338,0,12.588,12.588,0,0,0-1.691-.676c-.135-.068-.2-.135-.2-.271l-.541-2.773a2.417,2.417,0,0,0-1.894-1.691,22.936,22.936,0,0,0-5.275,0A2.08,2.08,0,0,0,48.72,5.486l-.541,2.773c0,.135-.135.2-.2.271-.609.2-1.15.473-1.691.676a.3.3,0,0,1-.338,0l-2.3-1.556a2.028,2.028,0,0,0-2.435.068,19.378,19.378,0,0,0-3.72,3.72,2.031,2.031,0,0,0-.068,2.435l1.623,2.3a.307.307,0,0,1,0,.338,7.782,7.782,0,0,0-.812,1.691Zm1.826-2.773L38.44,13.06a.711.711,0,0,1,0-.879,18.508,18.508,0,0,1,3.449-3.449.711.711,0,0,1,.879,0l2.3,1.623a1.681,1.681,0,0,0,1.691.135,10.627,10.627,0,0,1,1.556-.609A1.626,1.626,0,0,0,49.4,8.6l.609-2.908a.8.8,0,0,1,.609-.609,20.1,20.1,0,0,1,4.937,0c.338.068.609.271.609.609L56.7,8.461a1.752,1.752,0,0,0,1.082,1.285c.541.2,1.082.406,1.556.609a1.681,1.681,0,0,0,1.691-.135l2.3-1.556a.711.711,0,0,1,.879,0,18.508,18.508,0,0,1,3.449,3.449.711.711,0,0,1,0,.879l-1.623,2.3a1.681,1.681,0,0,0-.135,1.691,6.2,6.2,0,0,1,.609,1.556,1.626,1.626,0,0,0,1.285,1.082l2.773.541a.8.8,0,0,1,.609.609,14.7,14.7,0,0,1,.135,2.435c0,.812-.068,1.623-.135,2.435-.068.338-.271.609-.609.609l-2.773.541a1.707,1.707,0,0,0-1.285,1.15c-.2.541-.406,1.014-.609,1.556a1.681,1.681,0,0,0,.135,1.691l1.556,2.3a.711.711,0,0,1,0,.879,18.508,18.508,0,0,1-3.449,3.449.711.711,0,0,1-.879,0l-2.3-1.623a1.681,1.681,0,0,0-1.691-.135,6.2,6.2,0,0,1-1.556.609,1.837,1.837,0,0,0-1.15,1.285l-.541,2.773a.8.8,0,0,1-.609.609,20.1,20.1,0,0,1-4.937,0,.717.717,0,0,1-.609-.609l-.541-2.773a1.752,1.752,0,0,0-1.082-1.285c-.541-.2-1.014-.406-1.556-.609a1.363,1.363,0,0,0-.744-.2,1.553,1.553,0,0,0-.947.271l-2.3,1.623a.711.711,0,0,1-.879,0A18.508,18.508,0,0,1,38.372,34.3a.711.711,0,0,1,0-.879L40,31.118a1.681,1.681,0,0,0,.135-1.691,6.2,6.2,0,0,1-.609-1.556,1.626,1.626,0,0,0-1.285-1.082l-2.773-.541a.8.8,0,0,1-.609-.609,14.7,14.7,0,0,1-.135-2.435c0-.812.068-1.623.135-2.435.068-.338.271-.609.609-.609l2.773-.541a1.707,1.707,0,0,0,1.285-1.15c.2-.541.406-1.014.609-1.556a1.335,1.335,0,0,0-.068-1.488Z" transform="translate(-32.993 -3.268)"/>
      <path id="Path_58247_-_Outline" data-name="Path 58247 - Outline" d="M52.923,3.075a23.409,23.409,0,0,1,2.673.154l.012,0a2.714,2.714,0,0,1,2.141,1.9l0,.016.55,2.826.015.009a12.964,12.964,0,0,1,1.708.685l.028.014.021-.007,2.275-1.539a2.23,2.23,0,0,1,1.315-.429,2.508,2.508,0,0,1,1.477.5l.005,0a19.676,19.676,0,0,1,3.776,3.775,2.357,2.357,0,0,1,.5,1.369A2.265,2.265,0,0,1,69,13.789l-1.614,2.354a.211.211,0,0,0,.015.037,13.156,13.156,0,0,1,.561,1.372c.036.1.072.2.108.295l.02.024.03.036,2.646.543a2.392,2.392,0,0,1,1.94,2.014,17.554,17.554,0,0,1,0,5.369,2.392,2.392,0,0,1-1.941,2.014l-2.8.546-.011.02c-.04.108-.081.219-.122.332a13.154,13.154,0,0,1-.561,1.372l-.014.028a.2.2,0,0,0,.007.021L68.8,32.44a2.344,2.344,0,0,1-.071,2.792l0,.005a19.676,19.676,0,0,1-3.775,3.776,2.351,2.351,0,0,1-1.462.506,2.267,2.267,0,0,1-1.341-.431l-2.284-1.613a.211.211,0,0,0-.037.015,13.157,13.157,0,0,1-1.372.561l-.348.128h0v.011l-.546,2.8a2.392,2.392,0,0,1-2.014,1.941,17.553,17.553,0,0,1-5.369,0,2.392,2.392,0,0,1-2.014-1.941l-.546-2.8-.02-.011-.332-.122a13.157,13.157,0,0,1-1.372-.561l-.032-.015-.013.006-2.277,1.607a2.231,2.231,0,0,1-1.318.431,2.508,2.508,0,0,1-1.477-.5l-.005,0A19.676,19.676,0,0,1,36.99,35.24a2.357,2.357,0,0,1-.5-1.369,2.265,2.265,0,0,1,.427-1.431l1.54-2.277.007-.015c0-.007-.008-.017-.015-.032a12.82,12.82,0,0,1-.673-1.672l-.016-.02-.03-.036-2.779-.542a2.392,2.392,0,0,1-1.941-2.014,17.554,17.554,0,0,1,0-5.369,2.392,2.392,0,0,1,1.941-2.014l2.8-.546.009-.016a8.05,8.05,0,0,1,.826-1.72l.009-.02-.006-.013-1.607-2.277a2.344,2.344,0,0,1,.069-2.795l0-.005a19.676,19.676,0,0,1,3.775-3.776,2.351,2.351,0,0,1,1.461-.506,2.267,2.267,0,0,1,1.339.429l2.287,1.547a.21.21,0,0,0,.037-.015l.014-.007.015-.006c.217-.081.432-.173.661-.271.312-.133.634-.27.981-.389l.02-.016.036-.03.542-2.778a2.381,2.381,0,0,1,2.015-2.011l.012,0A23.408,23.408,0,0,1,52.923,3.075Zm2.6.764a22.629,22.629,0,0,0-5.193,0,1.77,1.77,0,0,0-1.5,1.5l0,.015L48.292,8.1a.6.6,0,0,1-.259.424L48,8.553l-.051.05-.069.024c-.346.115-.675.256-.994.392-.23.1-.448.191-.673.276a.744.744,0,0,1-.316.075.512.512,0,0,1-.333-.115l-2.291-1.55a1.656,1.656,0,0,0-.981-.315,1.734,1.734,0,0,0-1.081.374l-.006,0a19.07,19.07,0,0,0-3.659,3.659,1.719,1.719,0,0,0-.066,2.071l0,0,1.637,2.318.01.021a.609.609,0,0,1,0,.613l-.014.025a7.454,7.454,0,0,0-.781,1.625l-.007.021-.01.02a.591.591,0,0,1-.511.372l-2.76.538a1.773,1.773,0,0,0-1.434,1.5,16.939,16.939,0,0,0,0,5.182,1.773,1.773,0,0,0,1.434,1.5l.012,0,2.75.537a.6.6,0,0,1,.424.259l.027.033.05.051.024.069A12.489,12.489,0,0,0,39,29.841a.609.609,0,0,1,0,.613l-.009.018L37.413,32.8a1.727,1.727,0,0,0,.059,2.062l0,.006a19.07,19.07,0,0,0,3.659,3.659,1.9,1.9,0,0,0,1.113.381,1.62,1.62,0,0,0,.958-.315l0,0,2.318-1.637.021-.01a.606.606,0,0,1,.613,0,12.7,12.7,0,0,0,1.308.533l.353.13.015.006.014.007a.591.591,0,0,1,.372.511l.538,2.76a1.773,1.773,0,0,0,1.5,1.434,16.939,16.939,0,0,0,5.182,0,1.773,1.773,0,0,0,1.5-1.434l0-.012.537-2.751a.619.619,0,0,1,.427-.531l.327-.12a12.7,12.7,0,0,0,1.308-.533.75.75,0,0,1,.332-.083.511.511,0,0,1,.336.118l2.288,1.615a1.656,1.656,0,0,0,.981.315,1.734,1.734,0,0,0,1.081-.374l.006,0a19.07,19.07,0,0,0,3.659-3.659A1.719,1.719,0,0,0,68.3,32.8l-.006-.009-1.567-2.316-.009-.018a.613.613,0,0,1,.016-.645,13.061,13.061,0,0,0,.518-1.277c.044-.12.087-.238.13-.353l.006-.015.007-.014a.591.591,0,0,1,.511-.372l2.76-.538a1.773,1.773,0,0,0,1.434-1.5,16.939,16.939,0,0,0,0-5.182,1.773,1.773,0,0,0-1.434-1.5l-.015,0-2.614-.536a.6.6,0,0,1-.423-.259l-.027-.033-.046-.046-.025-.063c-.043-.115-.086-.233-.13-.353a12.7,12.7,0,0,0-.533-1.308.6.6,0,0,1,.033-.666L68.5,13.431a1.727,1.727,0,0,0-.059-2.062l0-.006A19.07,19.07,0,0,0,64.779,7.7a1.9,1.9,0,0,0-1.113-.381,1.62,1.62,0,0,0-.958.315l-.009.006L60.383,9.211l-.018.009a.75.75,0,0,1-.332.083.517.517,0,0,1-.313-.1A12.611,12.611,0,0,0,58.1,8.56l-.021-.007-.02-.01a.591.591,0,0,1-.372-.511L57.157,5.3A2.1,2.1,0,0,0,55.52,3.839Zm-2.63.589a20.286,20.286,0,0,1,2.507.155l.022,0a.952.952,0,0,1,.855.877l.535,2.743a1.452,1.452,0,0,0,.889,1.06c.535.2,1.089.408,1.569.614l.016.008a1.317,1.317,0,0,0,.586.134,1.365,1.365,0,0,0,.789-.245l.006,0,2.294-1.552a1.018,1.018,0,0,1,1.241,0l.006,0a18.551,18.551,0,0,1,3.506,3.508,1.018,1.018,0,0,1,0,1.242l-1.621,2.3a1.371,1.371,0,0,0-.115,1.369,6.526,6.526,0,0,1,.631,1.608,1.313,1.313,0,0,0,1.025.869l.025,0,2.773.541a1.1,1.1,0,0,1,.848.836l0,.024a15.017,15.017,0,0,1,.139,2.485c0,.824-.069,1.656-.136,2.46v.018l0,.017a.952.952,0,0,1-.877.855l-2.743.535a1.4,1.4,0,0,0-1.056.946l0,.011c-.1.274-.206.533-.307.784s-.2.5-.3.772l-.006.015-.007.014a1.37,1.37,0,0,0,.11,1.375l0,.006,1.552,2.294a1.019,1.019,0,0,1,0,1.241l0,.006a18.551,18.551,0,0,1-3.508,3.506,1.018,1.018,0,0,1-1.242,0l-2.3-1.621A1.366,1.366,0,0,0,59.8,36a1.318,1.318,0,0,0-.579.131,6.527,6.527,0,0,1-1.608.631,1.518,1.518,0,0,0-.941,1.054l-.54,2.769a1.1,1.1,0,0,1-.836.848l-.018,0-.018,0a20.5,20.5,0,0,1-5.013,0l-.022,0a1.028,1.028,0,0,1-.85-.85l-.541-2.77a1.452,1.452,0,0,0-.889-1.06c-.274-.1-.533-.206-.784-.307s-.5-.2-.772-.3l-.033-.012-.029-.02a1.061,1.061,0,0,0-.574-.151,1.25,1.25,0,0,0-.763.209l-.007.005-2.3,1.621a1.018,1.018,0,0,1-1.244,0l-.006,0a18.552,18.552,0,0,1-3.506-3.508,1.018,1.018,0,0,1,0-1.242l1.621-2.3a1.371,1.371,0,0,0,.115-1.369,6.527,6.527,0,0,1-.631-1.608A1.313,1.313,0,0,0,38.01,26.9l-.025,0-2.773-.541a1.1,1.1,0,0,1-.848-.836l0-.024a15.017,15.017,0,0,1-.139-2.485c0-.824.069-1.656.136-2.46v-.018l0-.017a.952.952,0,0,1,.877-.855l2.743-.535a1.4,1.4,0,0,0,1.056-.946l0-.011c.1-.274.206-.533.307-.784s.2-.5.3-.772l.017-.046.031-.038a1.04,1.04,0,0,0-.078-1.118l0,0L38,13.046A1.019,1.019,0,0,1,38,11.8l0-.006a18.552,18.552,0,0,1,3.508-3.506,1.018,1.018,0,0,1,1.242,0l2.3,1.621a1.366,1.366,0,0,0,.79.246,1.317,1.317,0,0,0,.586-.134l.016-.008c.1-.043.2-.089.313-.138A8.158,8.158,0,0,1,48.029,9.4,1.313,1.313,0,0,0,48.9,8.37l0-.029.609-2.908a1.1,1.1,0,0,1,.835-.844l.018,0,.018,0A20.286,20.286,0,0,1,52.89,4.428Zm2.419.763a19.886,19.886,0,0,0-4.829,0,.5.5,0,0,0-.366.367l-.606,2.9a1.936,1.936,0,0,1-1.278,1.523l-.016.006-.017,0a7.47,7.47,0,0,0-1.188.452c-.108.048-.211.094-.313.138a1.935,1.935,0,0,1-.853.2,1.984,1.984,0,0,1-1.146-.359L42.391,8.785a.4.4,0,0,0-.511,0,18.2,18.2,0,0,0-3.39,3.391.4.4,0,0,0,0,.508l.008.011,1.622,2.365a1.66,1.66,0,0,1,.088,1.813c-.1.258-.2.5-.291.742s-.2.5-.3.766a2.014,2.014,0,0,1-1.508,1.347l-.008,0-2.8.547h-.03c-.2,0-.274.21-.3.346-.065.786-.133,1.6-.133,2.391a14.637,14.637,0,0,0,.129,2.371.5.5,0,0,0,.368.371l2.76.538a1.935,1.935,0,0,1,1.525,1.278l.006.016,0,.017a5.908,5.908,0,0,0,.577,1.478l.008.015a2,2,0,0,1-.16,2.007l-1.627,2.305a.4.4,0,0,0,0,.511,18.2,18.2,0,0,0,3.391,3.39.4.4,0,0,0,.508,0l.007-.005,2.3-1.621a1.845,1.845,0,0,1,1.127-.329,1.68,1.68,0,0,1,.883.234c.262.1.512.2.753.3s.5.2.772.3a2.064,2.064,0,0,1,1.274,1.506l0,.008.541,2.773a.41.41,0,0,0,.357.364,19.887,19.887,0,0,0,4.829,0,.5.5,0,0,0,.366-.367l.542-2.779a2.138,2.138,0,0,1,1.342-1.506l.016-.006.017,0a5.908,5.908,0,0,0,1.478-.577l.015-.008a1.934,1.934,0,0,1,.861-.2,1.984,1.984,0,0,1,1.146.359l2.305,1.627a.4.4,0,0,0,.511,0,18.2,18.2,0,0,0,3.39-3.391.4.4,0,0,0,0-.508l-.009-.012-1.553-2.3a2,2,0,0,1-.165-1.988c.1-.268.2-.523.3-.77s.2-.5.3-.766A2.014,2.014,0,0,1,67.533,26.3l.008,0,2.8-.547h.03c.2,0,.274-.21.3-.346.065-.786.133-1.6.133-2.391a14.636,14.636,0,0,0-.129-2.371.5.5,0,0,0-.368-.371l-2.76-.539a1.935,1.935,0,0,1-1.525-1.278l-.006-.016,0-.017a5.908,5.908,0,0,0-.577-1.478l-.008-.015a2,2,0,0,1,.16-2.007l1.627-2.305a.4.4,0,0,0,0-.511,18.2,18.2,0,0,0-3.391-3.39.4.4,0,0,0-.508,0l-.012.009-2.3,1.553a1.984,1.984,0,0,1-1.142.357,1.935,1.935,0,0,1-.852-.2c-.465-.2-1.009-.4-1.535-.6a2.064,2.064,0,0,1-1.274-1.506l0-.008-.547-2.8V5.5C55.66,5.3,55.444,5.219,55.308,5.19Z" transform="translate(-32.8 -3.075)"/>
      <path id="Path_58248" data-name="Path 58248" d="M58.069,37.737A9.469,9.469,0,1,0,48.6,28.269,9.5,9.5,0,0,0,58.069,37.737Zm0-17.517a8.116,8.116,0,1,1-8.116,8.116,8.14,8.14,0,0,1,8.116-8.116Z" transform="translate(-37.945 -8.196)"/>
      <path id="Path_58248_-_Outline" data-name="Path 58248 - Outline" d="M57.876,37.851a9.656,9.656,0,0,1-3.8-.772,9.868,9.868,0,0,1-5.208-5.208,9.726,9.726,0,0,1,0-7.593,9.868,9.868,0,0,1,5.208-5.208,9.726,9.726,0,0,1,7.593,0,9.868,9.868,0,0,1,5.208,5.208,9.726,9.726,0,0,1,0,7.593,9.868,9.868,0,0,1-5.208,5.208A9.656,9.656,0,0,1,57.876,37.851Zm0-18.937a9.161,9.161,0,1,0,9.161,9.161A9.172,9.172,0,0,0,57.876,18.914Zm0,17.652a8.423,8.423,0,1,1,0-16.846h0a8.423,8.423,0,0,1,0,16.846Zm0-16.232a7.809,7.809,0,1,0,7.809,7.809A7.818,7.818,0,0,0,57.876,20.335Z" transform="translate(-37.752 -8.003)"/>
    </g>
  </g>
</svg>
