<svg xmlns="http://www.w3.org/2000/svg" width="71" height="61.53" viewBox="0 0 71 61.53">
  <g id="web-development" transform="translate(-1.998 -6)">
    <path id="Path_58111" data-name="Path 58111" d="M69.446,6H5.55A3.681,3.681,0,0,0,2,9.792V49.544a3.681,3.681,0,0,0,3.55,3.786H31.582v4.733H23.3a1.183,1.183,0,0,0-1.183,1.183v5.916H19.749V67.53h35.5V65.163H52.881V59.247A1.183,1.183,0,0,0,51.7,58.064H43.415V53.331H69.446A3.681,3.681,0,0,0,73,49.544V9.792A3.681,3.681,0,0,0,69.446,6ZM5.55,8.367h63.9A1.324,1.324,0,0,1,70.63,9.792V43.865H4.367V9.792A1.324,1.324,0,0,1,5.55,8.367Zm44.964,56.8H24.482V60.43H50.514Zm-9.466-7.1h-7.1V53.331h7.1Zm28.4-7.1H5.55a1.324,1.324,0,0,1-1.183-1.42V46.231H70.63v3.313A1.324,1.324,0,0,1,69.446,50.964Z" transform="translate(0)" fill="#212529"/>
    <path id="Path_58112" data-name="Path 58112" d="M59.032,46.5H61.4v2.367H59.032ZM34.183,28.749h2.984a10.965,10.965,0,0,0,.428,1.033l-2.111,2.111a1.183,1.183,0,0,0,0,1.673l3.347,3.347a1.183,1.183,0,0,0,1.673,0l2.111-2.11a10.966,10.966,0,0,0,1.033.428v2.983A1.183,1.183,0,0,0,44.833,39.4h4.733a1.183,1.183,0,0,0,1.183-1.183V35.231a10.963,10.963,0,0,0,1.033-.428l2.111,2.111a1.183,1.183,0,0,0,1.673,0l3.347-3.347a1.183,1.183,0,0,0,0-1.673L56.8,29.782a10.964,10.964,0,0,0,.427-1.033h2.984A1.183,1.183,0,0,0,61.4,27.566V22.833a1.183,1.183,0,0,0-1.183-1.183H57.231a10.963,10.963,0,0,0-.428-1.033l2.111-2.111a1.183,1.183,0,0,0,0-1.673l-3.347-3.347a1.183,1.183,0,0,0-1.673,0l-2.111,2.11a10.963,10.963,0,0,0-1.033-.427V12.183A1.183,1.183,0,0,0,49.566,11H44.833a1.183,1.183,0,0,0-1.183,1.183v2.984a10.963,10.963,0,0,0-1.033.428l-2.111-2.111a1.183,1.183,0,0,0-1.673,0l-3.347,3.347a1.183,1.183,0,0,0,0,1.673l2.11,2.111a10.967,10.967,0,0,0-.428,1.033H34.183A1.183,1.183,0,0,0,33,22.833v4.733A1.183,1.183,0,0,0,34.183,28.749Zm1.183-4.733h2.677a1.183,1.183,0,0,0,1.145-.887A8.283,8.283,0,0,1,40.07,21a1.183,1.183,0,0,0-.182-1.439l-1.893-1.893,1.673-1.673,1.893,1.893A1.183,1.183,0,0,0,43,18.069a8.283,8.283,0,0,1,2.13-.882,1.183,1.183,0,0,0,.887-1.145V13.367h2.367v2.677a1.183,1.183,0,0,0,.887,1.145,8.283,8.283,0,0,1,2.13.882,1.183,1.183,0,0,0,1.439-.182l1.893-1.893,1.673,1.673-1.893,1.893A1.183,1.183,0,0,0,54.331,21a8.283,8.283,0,0,1,.882,2.13,1.183,1.183,0,0,0,1.145.887h2.674v2.367H56.355a1.183,1.183,0,0,0-1.145.887,8.283,8.283,0,0,1-.882,2.13,1.183,1.183,0,0,0,.182,1.439L56.4,32.733l-1.673,1.673-1.893-1.893a1.183,1.183,0,0,0-1.439-.182,8.283,8.283,0,0,1-2.13.882,1.183,1.183,0,0,0-.887,1.145v2.674H46.016V34.355a1.183,1.183,0,0,0-.887-1.145A8.283,8.283,0,0,1,43,32.328a1.183,1.183,0,0,0-1.439.182L39.667,34.4l-1.673-1.673,1.893-1.893a1.183,1.183,0,0,0,.182-1.439,8.283,8.283,0,0,1-.882-2.13,1.183,1.183,0,0,0-1.145-.887H35.367Z" transform="translate(5.682 0.916)" fill="#212529"/>
    <path id="Path_58113" data-name="Path 58113" d="M51.964,31.062a5.916,5.916,0,1,0-5.916-5.916A5.916,5.916,0,0,0,51.964,31.062Zm0-9.466a3.55,3.55,0,1,1-3.55,3.55A3.55,3.55,0,0,1,51.964,21.6ZM9.713,17.7l1.673-1.673L9.856,14.5l1.53-1.53L9.713,11.293,7.347,13.66a1.183,1.183,0,0,0,0,1.673Zm3.44-1.547L16.7,11.42,18.6,12.84l-3.55,4.733ZM22.036,17.7,24.4,15.333a1.183,1.183,0,0,0,0-1.673l-2.367-2.367-1.673,1.673,1.53,1.53-1.53,1.53Zm5.08-2.02h2.367v2.367H27.115ZM9.366,20.412H14.1v2.367H9.366Zm7.1,0h2.367v2.367H16.466Zm4.733,0h7.1v2.367H21.2Zm9.466,0h2.367v2.367H30.665ZM11.733,25.146H14.1v2.367H11.733Zm4.733,0H21.2v2.367H16.466Zm7.1,0h2.367v2.367H23.566Zm4.733,0h4.733v2.367H28.3Zm-18.932,7.1H14.1v2.367H9.366Zm7.1,0h2.367v2.367H16.466Zm4.733,0h7.1v2.367H21.2Zm9.466,0h2.367v2.367H30.665ZM11.733,36.978H14.1v2.367H11.733Zm4.733,0H21.2v2.367H16.466Zm7.1,0h2.367v2.367H23.566Zm4.733,0h4.733v2.367H28.3Z" transform="translate(0.917 0.97)" fill="#212529"/>
  </g>
</svg>
